<?xml version="1.0" standalone="no"?>
<!DOCTYPE svg PUBLIC "-//W3C//DTD SVG 20010904//EN"
 "http://www.w3.org/TR/2001/REC-SVG-20010904/DTD/svg10.dtd">
<svg version="1.0" xmlns="http://www.w3.org/2000/svg"
 width="512.000000pt" height="512.000000pt" viewBox="0 0 512.000000 512.000000"
 preserveAspectRatio="xMidYMid meet">
<metadata>
Created by potrace 1.16, written by Peter Selinger 2001-2019
</metadata>
<g transform="translate(0.000000,512.000000) scale(0.100000,-0.100000)"
fill="#000000" stroke="none">
<path d="M1230 4840 c-19 -19 -20 -33 -20 -264 l0 -243 -102 -6 c-119 -6 -161
-21 -223 -78 -66 -61 -87 -115 -93 -236 l-5 -103 -243 0 c-231 0 -245 -1 -264
-20 -30 -30 -27 -83 6 -109 25 -20 39 -21 265 -21 l239 0 0 -180 0 -180 -245
0 c-232 0 -246 -1 -265 -20 -30 -30 -27 -83 6 -109 25 -20 39 -21 265 -21
l239 0 0 -180 0 -180 -245 0 c-232 0 -246 -1 -265 -20 -27 -27 -27 -83 0 -110
19 -19 33 -20 265 -20 l245 0 0 -180 0 -180 -245 0 c-232 0 -246 -1 -265 -20
-27 -27 -27 -83 0 -110 19 -19 33 -20 265 -20 l245 0 0 -180 0 -180 -239 0
c-226 0 -240 -1 -265 -21 -33 -26 -36 -79 -6 -109 19 -19 33 -20 265 -20 l245
0 0 -180 0 -180 -239 0 c-226 0 -240 -1 -265 -21 -33 -26 -36 -79 -6 -109 19
-19 33 -20 264 -20 l243 0 5 -102 c6 -119 21 -160 79 -223 57 -62 122 -87 242
-93 l97 -5 0 -243 c0 -231 1 -245 20 -264 30 -30 83 -27 109 6 20 25 21 39 21
265 l0 239 180 0 180 0 0 -245 c0 -232 1 -246 20 -265 30 -30 83 -27 109 6 20
25 21 39 21 265 l0 239 180 0 180 0 0 -245 c0 -232 1 -246 20 -265 27 -27 83
-27 110 2 19 21 20 34 20 265 l0 243 180 0 180 0 0 -245 c0 -232 1 -246 20
-265 27 -27 83 -27 110 0 19 19 20 33 20 265 l0 245 180 0 180 0 0 -239 c0
-226 1 -240 21 -265 26 -33 79 -36 109 -6 19 19 20 33 20 265 l0 245 180 0
180 0 0 -239 c0 -226 1 -240 21 -265 26 -33 79 -36 109 -6 19 19 20 33 20 264
l0 243 98 5 c151 7 233 54 289 162 21 41 26 69 31 153 l5 103 243 0 c231 0
245 1 264 20 30 30 27 83 -6 109 -25 20 -39 21 -265 21 l-239 0 0 180 0 180
245 0 c232 0 246 1 265 20 30 30 27 83 -6 109 -25 20 -39 21 -265 21 l-239 0
0 180 0 180 245 0 c232 0 246 1 265 20 27 27 27 83 0 110 -19 19 -33 20 -265
20 l-245 0 0 180 0 180 243 0 c231 0 244 1 265 20 29 27 29 83 2 110 -19 19
-33 20 -265 20 l-245 0 0 180 0 180 239 0 c226 0 240 1 265 21 33 26 36 79 6
109 -19 19 -33 20 -265 20 l-245 0 0 180 0 180 239 0 c226 0 240 1 265 21 33
26 36 79 6 109 -19 19 -33 20 -264 20 l-243 0 -5 103 c-7 122 -28 176 -93 236
-62 57 -104 72 -222 78 l-103 6 0 243 c0 231 -1 245 -20 264 -30 30 -83 27
-109 -6 -20 -25 -21 -39 -21 -265 l0 -239 -180 0 -180 0 0 245 c0 232 -1 246
-20 265 -30 30 -83 27 -109 -6 -20 -25 -21 -39 -21 -265 l0 -239 -180 0 -180
0 0 245 c0 232 -1 246 -20 265 -12 12 -33 20 -55 20 -22 0 -43 -8 -55 -20 -19
-19 -20 -33 -20 -265 l0 -245 -180 0 -180 0 0 245 c0 232 -1 246 -20 265 -12
12 -33 20 -55 20 -22 0 -43 -8 -55 -20 -19 -19 -20 -33 -20 -265 l0 -245 -180
0 -180 0 0 239 c0 226 -1 240 -21 265 -26 33 -79 36 -109 6 -19 -19 -20 -33
-20 -265 l0 -245 -180 0 -180 0 0 239 c0 226 -1 240 -21 265 -26 33 -79 36
-109 6z m2868 -680 c33 -15 47 -29 63 -64 19 -44 19 -71 17 -1548 -3 -1431 -4
-1505 -21 -1536 -11 -21 -34 -41 -60 -53 -41 -18 -90 -19 -1537 -19 -1459 0
-1496 1 -1538 20 -33 15 -47 29 -62 62 -19 42 -20 79 -20 1538 0 1459 1 1496
20 1538 15 33 29 47 62 62 42 19 79 20 1538 20 1460 0 1496 -1 1538 -20z"/>
<path d="M1275 3845 l-25 -24 0 -1261 0 -1261 25 -24 24 -25 1261 0 1261 0 24
25 25 24 0 1261 0 1261 -25 24 -24 25 -1261 0 -1261 0 -24 -25z m2445 -1285
l0 -1160 -1160 0 -1160 0 0 1160 0 1160 1160 0 1160 0 0 -1160z"/>
<path d="M1655 3511 c-78 -32 -92 -148 -24 -205 47 -40 108 -36 157 8 34 31
37 39 37 86 0 47 -3 55 -37 86 -39 35 -86 44 -133 25z"/>
<path d="M3332 3486 c-34 -31 -37 -39 -37 -86 0 -47 3 -55 37 -86 49 -44 110
-48 157 -8 87 73 38 214 -75 214 -37 0 -51 -6 -82 -34z"/>
<path d="M1631 1814 c-56 -47 -59 -134 -6 -184 16 -15 41 -24 74 -28 45 -4 52
-1 85 29 45 41 56 90 32 141 -33 69 -127 91 -185 42z"/>
<path d="M3348 1822 c-101 -62 -53 -222 66 -222 33 0 52 7 75 26 86 72 38 214
-72 214 -23 0 -54 -8 -69 -18z"/>
</g>
</svg>
