<?xml version="1.0" standalone="no"?>
<!DOCTYPE svg PUBLIC "-//W3C//DTD SVG 20010904//EN"
 "http://www.w3.org/TR/2001/REC-SVG-20010904/DTD/svg10.dtd">
<svg version="1.0" xmlns="http://www.w3.org/2000/svg"
 width="512.000000pt" height="512.000000pt" viewBox="0 0 512.000000 512.000000"
 preserveAspectRatio="xMidYMid meet">
<metadata>
Created by potrace 1.16, written by Peter Selinger 2001-2019
</metadata>
<g transform="translate(0.000000,512.000000) scale(0.100000,-0.100000)"
fill="#000000" stroke="none">
<path d="M1890 4051 c-95 -31 -163 -72 -231 -140 -94 -94 -148 -209 -161 -341
l-3 -25 -185 -6 c-156 -5 -195 -9 -245 -28 -151 -55 -271 -173 -333 -328 l-27
-68 -3 -568 c-2 -487 -1 -577 13 -630 59 -237 278 -416 508 -417 l57 0 0 -279
c0 -257 1 -281 19 -302 13 -16 29 -23 54 -23 32 0 57 22 343 302 l309 302 588
0 588 0 75 25 c85 29 143 62 196 113 l38 36 123 -122 c118 -116 126 -122 165
-122 71 0 72 4 72 322 l0 278 50 0 c231 0 455 176 514 406 23 91 24 1140 1
1229 -48 182 -208 342 -390 390 -51 13 -193 15 -1070 14 -940 0 -1014 -1
-1065 -18z m2035 -131 c188 -28 328 -168 355 -355 13 -92 13 -940 0 -1030 -21
-140 -102 -254 -228 -316 -61 -30 -77 -34 -172 -37 -119 -4 -158 -15 -171 -49
-5 -13 -9 -119 -9 -235 l0 -210 -251 243 -251 244 -627 5 -626 5 -58 27 c-118
55 -213 179 -237 307 -14 77 -13 1005 1 1073 36 169 182 307 348 328 89 12
1846 11 1926 0z m-2433 -982 c4 -432 5 -456 26 -518 62 -187 208 -326 392
-375 45 -12 161 -15 640 -15 l585 0 125 -126 125 -125 -35 -31 c-53 -46 -152
-89 -228 -99 -37 -4 -321 -8 -631 -9 l-564 0 -246 -242 -246 -243 -5 228 c-6
263 -3 257 -99 257 -198 1 -335 66 -419 197 -63 98 -63 104 -60 704 l3 544 31
65 c52 110 123 176 234 218 47 18 78 21 212 21 l157 1 3 -452z"/>
</g>
</svg>
