<?xml version="1.0" standalone="no"?>
<!DOCTYPE svg PUBLIC "-//W3C//DTD SVG 20010904//EN"
 "http://www.w3.org/TR/2001/REC-SVG-20010904/DTD/svg10.dtd">
<svg version="1.0" xmlns="http://www.w3.org/2000/svg"
 width="512.000000pt" height="512.000000pt" viewBox="0 0 512.000000 512.000000"
 preserveAspectRatio="xMidYMid meet">
<metadata>
Created by potrace 1.16, written by Peter Selinger 2001-2019
</metadata>
<g transform="translate(0.000000,512.000000) scale(0.100000,-0.100000)"
fill="#000000" stroke="none">
<path d="M850 4549 c-116 -17 -208 -66 -287 -153 -85 -93 -122 -192 -123 -327
0 -226 165 -431 378 -466 l32 -6 0 -123 0 -124 -83 0 c-59 0 -89 -5 -105 -16
l-22 -15 0 -1242 0 -1242 24 -50 c105 -221 434 -208 522 21 18 47 19 93 19
1277 l0 1229 -24 19 c-18 15 -39 19 -102 19 l-79 0 0 124 0 124 36 7 c103 19
218 98 282 195 106 159 111 375 11 531 -37 59 -123 141 -175 167 -94 47 -205
66 -304 51z m145 -154 c153 -40 255 -168 255 -320 0 -127 -74 -246 -188 -302
-49 -24 -69 -28 -142 -28 -74 0 -92 4 -143 30 -206 103 -250 372 -88 534 43
43 109 78 172 90 64 13 69 13 134 -4z m63 -2357 c-3 -1072 -4 -1165 -20 -1194
-49 -89 -177 -95 -229 -10 -18 30 -19 74 -19 1199 l0 1167 135 0 135 0 -2
-1162z"/>
<path d="M1565 4465 c-48 -48 -39 -64 130 -235 l155 -156 0 -362 0 -362 -84 0
c-141 0 -126 154 -126 -1270 0 -1368 -5 -1279 75 -1368 63 -70 125 -95 224
-90 86 4 137 25 187 75 63 63 78 105 82 233 l4 115 88 -86 c196 -192 461 -327
735 -374 131 -22 349 -23 474 0 384 67 720 287 933 609 155 235 230 487 230
776 0 417 -163 778 -478 1059 -535 477 -1374 456 -1893 -47 l-91 -88 0 208 c0
256 4 248 -125 248 l-85 0 0 393 0 393 -178 177 c-194 193 -209 201 -257 152z
m1957 -1266 c661 -131 1101 -769 993 -1437 -83 -510 -473 -915 -985 -1023
-134 -28 -344 -30 -472 -5 -389 75 -707 309 -892 656 -87 165 -146 398 -146
580 0 169 55 400 131 552 83 167 225 338 369 447 292 220 645 301 1002 230z
m-1462 -259 l0 -260 -39 -78 c-52 -103 -96 -231 -123 -355 -31 -146 -31 -408
0 -554 27 -124 71 -252 123 -355 l39 -78 0 -190 c0 -214 -7 -246 -62 -280 -68
-41 -159 -16 -191 53 -16 32 -17 132 -17 1196 l0 1161 135 0 135 0 0 -260z"/>
<path d="M2403 2720 c-34 -14 -41 -37 -48 -175 -4 -72 -25 -283 -47 -470 -22
-187 -40 -374 -39 -416 1 -146 61 -271 184 -386 389 -362 1140 -388 1583 -55
117 88 186 177 224 287 35 103 34 156 -9 515 -22 184 -44 409 -50 499 -8 144
-11 166 -29 184 -12 11 -34 20 -50 20 -19 0 -120 -49 -283 -138 l-253 -139
-306 -1 -305 -1 -252 138 c-139 76 -263 140 -275 142 -13 3 -33 1 -45 -4z
m342 -326 l180 -98 350 -1 350 -1 197 108 c109 60 204 111 212 114 11 4 15
-14 21 -88 3 -51 25 -244 47 -428 33 -278 38 -344 29 -386 -48 -243 -343 -432
-740 -475 -450 -49 -930 190 -970 483 -5 38 4 142 31 363 20 171 40 363 44
427 l7 118 31 -19 c17 -10 112 -63 211 -117z"/>
</g>
</svg>
