<?xml version="1.0" standalone="no"?>
<!DOCTYPE svg PUBLIC "-//W3C//DTD SVG 20010904//EN"
 "http://www.w3.org/TR/2001/REC-SVG-20010904/DTD/svg10.dtd">
<svg version="1.0" xmlns="http://www.w3.org/2000/svg"
 width="512.000000pt" height="512.000000pt" viewBox="0 0 512.000000 512.000000"
 preserveAspectRatio="xMidYMid meet">
<metadata>
Created by potrace 1.16, written by Peter Selinger 2001-2019
</metadata>
<g transform="translate(0.000000,512.000000) scale(0.100000,-0.100000)"
fill="#000000" stroke="none">
<path d="M1485 5109 c-91 -50 -145 -124 -145 -198 0 -19 122 -943 270 -2053
l270 -2018 0 -357 c0 -353 1 -359 23 -398 13 -22 40 -49 62 -62 l40 -23 554 0
554 0 43 25 c28 16 49 39 63 68 20 41 21 58 21 400 l0 357 270 2012 c149 1107
270 2028 270 2048 -1 74 -54 151 -132 191 -36 18 -76 19 -1090 19 -739 -1
-1059 -4 -1073 -11z m135 -209 l0 -71 -57 3 -58 3 -3 43 c-4 61 24 90 91 91
27 1 27 1 27 -69z m280 0 l0 -70 -65 0 -65 0 0 70 0 70 65 0 65 0 0 -70z m290
0 l0 -70 -65 0 -65 0 0 70 0 70 65 0 65 0 0 -70z m290 0 l0 -70 -65 0 -65 0 0
70 0 70 65 0 65 0 0 -70z m280 0 l0 -70 -60 0 -60 0 0 70 0 70 60 0 60 0 0
-70z m290 0 l0 -70 -60 0 -60 0 0 70 0 70 60 0 60 0 0 -70z m290 -5 l0 -65
-65 0 -65 0 0 65 0 65 65 0 65 0 0 -65z m247 -252 c-3 -16 -114 -850 -248
-1855 l-244 -1828 -537 0 c-433 0 -538 3 -538 13 0 7 -110 836 -245 1842 -135
1007 -245 1836 -245 1843 0 9 213 12 1031 12 l1032 0 -6 -27z m-507 -4162 c0
-355 5 -331 -71 -331 -31 0 -39 4 -39 19 0 10 -16 50 -35 88 -108 216 -374
297 -587 178 -86 -48 -154 -131 -188 -229 -16 -49 -18 -51 -57 -54 -74 -6 -73
-11 -73 339 l0 309 525 0 525 0 0 -319z m-436 -163 c46 -14 149 -108 158 -145
l6 -23 -249 0 c-137 0 -249 4 -249 8 0 18 60 98 90 120 66 49 160 65 244 40z"/>
<path d="M2025 4281 c-50 -22 -91 -69 -105 -119 -6 -23 -10 -218 -10 -518 l0
-480 25 -50 c14 -28 40 -59 62 -74 l37 -25 505 -3 c336 -2 518 0 542 8 55 15
105 76 119 143 8 38 10 199 8 524 -3 465 -3 468 -26 510 -12 24 -41 55 -64 70
l-42 28 -505 2 c-474 3 -509 2 -546 -16z m1015 -160 c13 -25 14 -920 0 -941
-8 -13 -74 -15 -474 -18 -414 -2 -466 -1 -480 13 -14 15 -16 68 -16 479 0 346
3 465 12 474 9 9 129 12 480 12 452 0 468 -1 478 -19z"/>
</g>
</svg>
