<?xml version="1.0" standalone="no"?>
<!DOCTYPE svg PUBLIC "-//W3C//DTD SVG 20010904//EN"
 "http://www.w3.org/TR/2001/REC-SVG-20010904/DTD/svg10.dtd">
<svg version="1.0" xmlns="http://www.w3.org/2000/svg"
 width="512.000000pt" height="512.000000pt" viewBox="0 0 512.000000 512.000000"
 preserveAspectRatio="xMidYMid meet">
<metadata>
Created by potrace 1.16, written by Peter Selinger 2001-2019
</metadata>
<g transform="translate(0.000000,512.000000) scale(0.100000,-0.100000)"
fill="#000000" stroke="none">
<path d="M862 4379 c-73 -36 -124 -92 -152 -166 -20 -53 -20 -76 -20 -1673 0
-1597 0 -1620 20 -1673 28 -74 79 -130 152 -166 l61 -31 1127 0 1127 0 62 31
c43 21 75 47 101 81 59 73 70 124 70 312 l0 160 258 -256 c166 -165 273 -264
302 -279 33 -17 68 -24 133 -27 83 -4 91 -3 152 27 120 59 180 165 173 301 -3
51 -12 89 -27 120 -15 30 -125 147 -327 351 l-305 305 21 50 c68 157 86 403
42 578 -55 218 -198 430 -366 542 l-56 37 0 301 0 300 -402 403 -403 403 -841
0 -841 0 -61 -31z m1630 -372 l3 -262 33 -67 c39 -79 93 -129 169 -158 49 -18
78 -20 308 -20 l255 0 0 -211 c0 -197 -1 -211 -17 -204 -131 51 -355 68 -503
37 -366 -76 -635 -328 -732 -684 -33 -121 -33 -356 0 -477 48 -174 127 -309
257 -436 137 -135 319 -225 517 -256 128 -20 349 2 461 46 17 7 18 -3 15 -193
-3 -185 -5 -203 -24 -229 -33 -44 -80 -71 -137 -78 -29 -3 -520 -5 -1092 -3
-960 3 -1042 4 -1071 20 -43 24 -82 72 -89 111 -3 18 -4 748 -3 1624 3 1590 3
1592 24 1619 28 39 66 65 105 74 19 4 368 8 776 9 l741 1 4 -263z m486 -355
c-201 -3 -227 0 -268 35 -60 50 -64 69 -68 283 l-3 195 255 -255 256 -255
-172 -3z m157 -692 c91 -29 206 -88 277 -145 176 -138 298 -390 298 -615 0
-164 -74 -368 -180 -497 -97 -120 -242 -215 -400 -265 -64 -19 -96 -23 -215
-23 -119 0 -151 4 -215 23 -222 70 -395 215 -495 418 -54 109 -77 209 -77 344
0 142 22 233 87 358 111 217 301 363 542 416 98 22 285 15 378 -14z m842
-1592 c154 -156 286 -293 292 -305 24 -47 9 -127 -32 -171 -49 -53 -134 -70
-193 -38 -16 8 -154 140 -307 293 l-278 279 63 51 c35 28 86 79 112 112 27 34
52 61 55 61 3 0 133 -127 288 -282z"/>
<path d="M1230 3840 c-13 -13 -20 -33 -20 -59 0 -73 -10 -71 457 -71 400 0
414 1 433 20 12 12 20 33 20 55 0 22 -8 43 -20 55 -19 19 -33 20 -435 20 -402
0 -416 -1 -435 -20z"/>
<path d="M1245 3238 c-29 -16 -35 -28 -35 -69 0 -72 -20 -69 513 -69 l476 0
21 27 c16 20 20 36 16 58 -13 62 8 60 -504 62 -338 2 -473 0 -487 -9z"/>
<path d="M1227 2612 c-23 -25 -22 -85 1 -105 16 -15 49 -17 260 -17 l241 0 20
26 c26 34 26 54 0 88 l-20 26 -243 0 c-223 0 -244 -2 -259 -18z"/>
<path d="M1227 2002 c-10 -10 -17 -34 -17 -53 0 -74 18 -79 272 -79 117 0 223
3 236 6 29 8 55 58 46 87 -17 57 -17 57 -279 57 -222 0 -243 -2 -258 -18z"/>
<path d="M1232 1394 c-29 -20 -31 -85 -2 -114 19 -19 33 -20 435 -20 402 0
416 1 435 20 12 12 20 33 20 55 0 22 -8 43 -20 55 -19 19 -33 20 -433 20 -357
0 -416 -2 -435 -16z"/>
<path d="M3035 2280 l-200 -200 -115 115 c-104 104 -119 115 -151 115 -58 0
-92 -56 -65 -107 8 -15 77 -90 154 -165 124 -123 144 -138 174 -138 31 0 54
21 271 238 257 258 263 267 212 317 -50 51 -62 43 -280 -175z"/>
</g>
</svg>
