<?xml version="1.0" standalone="no"?>
<!DOCTYPE svg PUBLIC "-//W3C//DTD SVG 20010904//EN"
 "http://www.w3.org/TR/2001/REC-SVG-20010904/DTD/svg10.dtd">
<svg version="1.0" xmlns="http://www.w3.org/2000/svg"
 width="512.000000pt" height="512.000000pt" viewBox="0 0 512.000000 512.000000"
 preserveAspectRatio="xMidYMid meet">
<metadata>
Created by potrace 1.16, written by Peter Selinger 2001-2019
</metadata>
<g transform="translate(0.000000,512.000000) scale(0.100000,-0.100000)"
fill="#000000" stroke="none">
<path d="M4455 4905 c-91 -20 -191 -61 -275 -112 -63 -38 -205 -175 -882 -851
l-807 -805 -295 28 -296 28 -36 44 c-80 97 -225 185 -371 225 -119 32 -314 29
-448 -6 -319 -83 -602 -320 -740 -618 -63 -137 -87 -237 -92 -389 -7 -172 9
-254 78 -396 109 -227 319 -371 588 -403 173 -21 359 13 537 100 272 132 479
364 581 650 l23 65 37 -2 c49 -4 165 -59 230 -111 28 -23 72 -70 97 -105 48
-68 99 -186 94 -219 -2 -14 -26 -28 -88 -51 -315 -119 -563 -367 -673 -673
-40 -111 -58 -215 -58 -338 0 -146 20 -235 82 -363 97 -201 273 -337 503 -388
105 -24 316 -17 431 14 116 31 304 128 403 207 190 152 331 367 388 593 79
310 10 598 -191 796 l-71 70 -28 289 c-26 279 -27 290 -9 306 10 10 272 235
583 501 619 529 663 569 754 679 250 301 388 654 403 1035 7 175 5 178 -94
201 -73 17 -278 17 -358 -1z m205 -160 c0 -3 -372 -490 -827 -1083 -455 -592
-835 -1093 -844 -1112 -16 -33 -16 -50 17 -370 18 -184 33 -343 34 -353 0 -10
42 -59 94 -110 106 -104 155 -190 181 -312 75 -359 -168 -785 -550 -961 -106
-49 -226 -75 -343 -75 -179 1 -303 50 -423 170 -122 122 -173 252 -171 436 3
390 317 770 718 870 93 23 114 43 114 112 0 124 -66 306 -148 409 -37 48 -41
58 -52 148 -7 54 -10 136 -7 183 4 71 11 97 42 161 36 75 63 103 849 890 446
447 838 834 871 859 79 59 161 100 249 123 65 17 196 27 196 15z m35 -332
c-66 -264 -206 -516 -391 -706 -66 -68 -604 -538 -642 -561 -7 -4 64 93 159
216 94 122 334 435 533 694 198 260 363 470 364 469 2 -2 -8 -52 -23 -112z
m-3290 -1108 c129 -23 214 -71 320 -181 l91 -93 258 -25 c143 -14 265 -26 273
-26 11 0 10 -6 -3 -32 -40 -78 -56 -144 -61 -261 -5 -104 -8 -117 -22 -111
-72 33 -193 66 -258 71 -101 7 -117 -4 -144 -107 -77 -286 -263 -514 -523
-640 -215 -104 -461 -113 -640 -23 -148 74 -260 216 -302 383 -20 79 -15 263
10 355 22 84 105 248 164 326 139 184 363 324 579 363 101 18 160 19 258 1z"/>
<path d="M2701 2754 c-67 -86 55 -193 125 -110 51 58 13 136 -65 136 -31 0
-44 -6 -60 -26z"/>
<path d="M2590 1646 c-241 -62 -464 -278 -536 -521 -27 -91 -24 -242 6 -320
32 -83 122 -173 205 -205 90 -35 231 -34 340 4 116 40 209 98 301 190 90 90
142 172 182 285 23 65 26 92 26 186 0 89 -5 121 -23 167 -31 79 -97 150 -177
189 -58 29 -76 33 -167 35 -65 2 -122 -2 -157 -10z m251 -184 c97 -49 132
-161 93 -293 -44 -151 -158 -292 -292 -362 -325 -171 -546 38 -383 361 94 186
288 318 472 321 44 1 69 -5 110 -27z"/>
<path d="M1152 3095 c-249 -56 -484 -286 -548 -534 -25 -101 -16 -248 20 -328
97 -213 357 -273 622 -144 159 77 280 196 354 346 56 113 73 188 68 305 -3 84
-8 105 -36 163 -40 81 -111 148 -190 178 -73 27 -204 34 -290 14z m246 -185
c77 -43 107 -112 100 -227 -19 -294 -409 -580 -635 -465 -73 38 -104 98 -104
199 0 213 191 441 427 508 68 20 162 13 212 -15z"/>
</g>
</svg>
