<?xml version="1.0" standalone="no"?>
<!DOCTYPE svg PUBLIC "-//W3C//DTD SVG 20010904//EN"
 "http://www.w3.org/TR/2001/REC-SVG-20010904/DTD/svg10.dtd">
<svg version="1.0" xmlns="http://www.w3.org/2000/svg"
 width="512.000000pt" height="512.000000pt" viewBox="0 0 512.000000 512.000000"
 preserveAspectRatio="xMidYMid meet">
<metadata>
Created by potrace 1.16, written by Peter Selinger 2001-2019
</metadata>
<g transform="translate(0.000000,512.000000) scale(0.100000,-0.100000)"
fill="#000000" stroke="none">
<path d="M2041 4374 c-84 -23 -150 -63 -227 -139 -77 -76 -123 -158 -143 -253
-6 -29 -11 -138 -11 -242 l0 -190 -283 0 c-304 0 -350 -6 -445 -54 -108 -55
-196 -164 -226 -278 -15 -57 -17 -158 -14 -1108 l3 -1045 32 -67 c56 -119 155
-207 277 -248 61 -20 73 -20 1576 -18 l1515 3 75 37 c95 46 178 129 223 225
l32 68 3 1045 c3 950 1 1051 -14 1108 -30 114 -118 223 -226 278 -95 48 -141
54 -445 54 l-283 0 0 190 c0 210 -8 265 -53 360 -36 77 -145 191 -223 232
-104 56 -127 58 -629 57 -369 0 -471 -3 -514 -15z m1054 -168 c76 -38 143
-105 181 -181 29 -60 29 -61 32 -267 l3 -208 -80 0 -81 0 0 180 c0 197 -7 229
-58 284 -15 16 -45 37 -67 47 -37 17 -72 19 -465 19 -393 0 -428 -2 -465 -19
-22 -10 -52 -31 -67 -47 -51 -55 -58 -87 -58 -284 l0 -180 -80 0 -80 0 0 190
c0 163 3 198 19 246 27 75 77 142 141 187 96 66 93 66 605 64 l460 -2 60 -29z
m-115 -296 c18 -18 20 -33 20 -190 l0 -170 -440 0 -440 0 0 170 c0 157 2 172
20 190 19 19 33 20 420 20 387 0 401 -1 420 -20z m1126 -542 c28 -15 72 -50
97 -78 83 -92 78 -16 75 -1171 l-3 -1024 -23 -44 c-35 -64 -104 -127 -168
-150 -54 -21 -65 -21 -1524 -21 -1459 0 -1470 0 -1524 21 -63 23 -134 87 -165
147 -40 78 -42 138 -39 1137 3 901 4 963 22 1007 32 86 125 171 216 199 14 4
691 7 1505 6 l1480 -2 51 -27z"/>
<path d="M2265 2925 l-25 -24 0 -221 0 -220 -220 0 -221 0 -24 -25 -25 -24 0
-269 c0 -257 1 -270 21 -296 l20 -26 225 0 224 0 0 -223 c0 -221 0 -224 23
-245 23 -21 30 -22 298 -22 275 0 276 0 297 23 21 22 22 31 22 245 l0 222 224
0 225 0 20 26 c20 26 21 39 21 296 l0 269 -25 24 -24 25 -221 0 -220 0 0 220
0 221 -25 24 -24 25 -271 0 -271 0 -24 -25z m465 -347 c0 -294 -26 -268 267
-268 l223 0 0 -170 0 -170 -220 0 -221 0 -24 -25 -25 -24 0 -221 0 -220 -170
0 -170 0 0 220 0 221 -25 24 -24 25 -221 0 -220 0 0 170 0 170 222 0 c294 0
268 -26 268 267 l0 223 170 0 170 0 0 -222z"/>
</g>
</svg>
