<?xml version="1.0" standalone="no"?>
<!DOCTYPE svg PUBLIC "-//W3C//DTD SVG 20010904//EN"
 "http://www.w3.org/TR/2001/REC-SVG-20010904/DTD/svg10.dtd">
<svg version="1.0" xmlns="http://www.w3.org/2000/svg"
 width="512.000000pt" height="512.000000pt" viewBox="0 0 512.000000 512.000000"
 preserveAspectRatio="xMidYMid meet">
<metadata>
Created by potrace 1.16, written by Peter Selinger 2001-2019
</metadata>
<g transform="translate(0.000000,512.000000) scale(0.100000,-0.100000)"
fill="#000000" stroke="none">
<path d="M2260 5100 c-417 -70 -771 -251 -1060 -540 -361 -361 -565 -848 -563
-1345 0 -115 5 -175 22 -255 124 -591 642 -1467 1506 -2545 84 -104 196 -241
249 -302 l96 -113 50 0 50 0 96 113 c53 61 165 198 249 302 864 1078 1382
1954 1506 2545 17 80 22 140 22 255 3 642 -336 1253 -890 1608 -219 141 -465
232 -743 278 -153 25 -439 24 -590 -1z m560 -195 c199 -31 415 -105 575 -196
482 -275 792 -722 876 -1264 20 -127 17 -354 -5 -455 -106 -486 -505 -1189
-1180 -2080 -217 -286 -511 -650 -526 -650 -15 0 -309 364 -526 650 -675 891
-1074 1594 -1180 2080 -22 101 -25 328 -5 455 127 819 790 1425 1616 1479 80
5 263 -5 355 -19z"/>
<path d="M2400 4580 c-358 -44 -676 -210 -912 -477 -436 -493 -474 -1236 -91
-1771 210 -294 522 -496 883 -573 150 -32 410 -32 560 0 387 82 698 291 913
614 98 146 168 317 208 507 32 150 32 410 0 560 -122 576 -549 1004 -1118
1119 -118 24 -332 34 -443 21z m410 -215 c517 -115 896 -522 971 -1043 14
-104 7 -309 -16 -412 -107 -488 -474 -852 -965 -957 -118 -25 -362 -25 -480 0
-253 55 -467 173 -643 356 -167 174 -272 372 -324 611 -25 118 -25 362 0 480
55 254 156 440 341 626 186 185 382 292 621 338 44 8 89 17 100 20 44 11 323
-3 395 -19z"/>
<path d="M2246 3949 l-26 -31 0 -209 0 -209 -209 0 -209 0 -31 -26 -31 -26 0
-288 0 -288 31 -26 31 -26 209 0 209 0 0 -209 0 -209 26 -31 26 -31 288 0 288
0 26 31 26 31 0 209 0 209 209 0 209 0 31 26 31 26 0 288 0 288 -31 26 -31 26
-209 0 -209 0 0 209 0 209 -26 31 -26 31 -288 0 -288 0 -26 -31z m454 -358 c0
-110 4 -211 10 -225 20 -55 46 -61 267 -64 l203 -3 0 -139 0 -139 -211 -3
-211 -3 -29 -33 -29 -32 0 -205 0 -205 -145 0 -145 0 0 209 c0 207 0 210 -24
238 l-24 28 -216 3 -216 3 0 140 0 139 184 0 c212 0 237 3 271 38 l25 25 0
213 0 214 145 0 145 0 0 -199z"/>
</g>
</svg>
