<?xml version="1.0" standalone="no"?>
<!DOCTYPE svg PUBLIC "-//W3C//DTD SVG 20010904//EN"
 "http://www.w3.org/TR/2001/REC-SVG-20010904/DTD/svg10.dtd">
<svg version="1.0" xmlns="http://www.w3.org/2000/svg"
 width="512.000000pt" height="512.000000pt" viewBox="0 0 512.000000 512.000000"
 preserveAspectRatio="xMidYMid meet">
<metadata>
Created by potrace 1.16, written by Peter Selinger 2001-2019
</metadata>
<g transform="translate(0.000000,512.000000) scale(0.100000,-0.100000)"
fill="#000000" stroke="none">
<path d="M3232 4813 c-30 -26 -162 -277 -162 -308 0 -26 33 -67 61 -77 11 -4
9 -16 -14 -62 -22 -47 -31 -56 -45 -50 -9 4 -36 9 -59 12 -39 4 -43 2 -65 -35
-14 -21 -179 -330 -368 -688 -189 -357 -345 -652 -347 -654 -2 -3 -34 12 -72
32 -38 20 -78 37 -89 37 -36 0 -68 -41 -136 -171 -70 -134 -80 -177 -47 -206
11 -9 230 -128 488 -265 317 -167 478 -248 499 -248 19 0 38 8 51 23 31 34
153 273 153 299 -1 34 -19 52 -93 93 -37 21 -67 40 -65 44 7 15 61 116 63 119
1 1 37 -3 81 -9 251 -34 428 -120 508 -247 61 -97 79 -248 52 -417 -9 -54 -18
-101 -20 -103 -2 -2 -31 10 -64 27 -114 57 -201 76 -357 76 -115 0 -154 -4
-218 -23 -124 -35 -243 -101 -332 -183 l-40 -37 -435 -4 c-417 -4 -438 -5
-494 -26 -86 -32 -135 -63 -193 -124 -56 -60 -87 -115 -127 -226 -30 -84 -32
-118 -10 -150 l15 -22 510 0 509 0 0 -100 0 -100 -665 0 c-644 0 -666 -1 -719
-20 -36 -14 -68 -36 -96 -66 -72 -78 -74 -88 -78 -366 l-4 -247 26 -26 25 -25
1701 0 1701 0 25 25 26 26 -4 247 c-4 278 -6 288 -78 366 -47 50 -125 86 -189
86 l-39 0 -4 168 -5 167 30 70 c72 169 130 377 153 545 82 620 -222 1071 -816
1212 -52 12 -96 23 -97 23 -2 1 83 163 187 361 105 197 190 369 190 382 0 35
-16 58 -48 71 l-29 12 31 59 c30 58 31 58 58 44 33 -17 69 -18 90 -1 9 6 48
72 87 146 75 141 85 185 53 214 -32 29 -583 317 -607 317 -13 0 -32 -8 -43
-17z m282 -270 c110 -58 203 -108 205 -110 5 -4 -26 -72 -43 -96 -13 -16 -27
-11 -197 79 -101 53 -194 103 -206 110 l-23 14 27 55 c15 30 29 55 31 55 2 0
95 -48 206 -107z m-66 -282 l42 -21 -19 -38 c-42 -80 -34 -79 -148 -20 l-101
53 30 58 29 58 62 -34 c34 -19 81 -44 105 -56z m-135 -246 c81 -42 147 -79
147 -81 0 -14 -675 -1274 -682 -1274 -13 0 -408 211 -408 218 0 3 152 292 338
643 l337 637 60 -33 c33 -18 126 -67 208 -110z m107 -986 c270 -89 470 -267
559 -498 47 -122 56 -181 55 -356 0 -180 -18 -285 -80 -478 l-36 -109 -36 62
c-20 34 -61 89 -91 121 l-53 60 23 107 c34 153 34 355 1 462 -50 158 -147 268
-305 345 -94 45 -237 87 -339 99 l-57 7 62 118 62 118 85 -19 c47 -10 114 -28
150 -39z m-903 -408 l382 -203 -27 -54 c-14 -30 -29 -54 -34 -54 -7 0 -779
408 -788 417 -2 2 9 28 25 58 22 41 32 52 44 46 9 -5 188 -99 398 -210z m825
-750 c243 -62 427 -246 489 -489 14 -56 19 -110 19 -209 l0 -133 -665 0 -665
0 0 128 c0 158 17 242 71 352 55 111 178 237 286 293 145 76 314 96 465 58z
m-898 -305 c-19 -41 -39 -98 -46 -125 l-11 -51 -443 0 -444 0 11 28 c43 114
131 187 253 212 23 4 193 8 378 9 l337 1 -35 -74z m1645 -694 c63 -34 71 -64
71 -259 l0 -173 -1600 0 -1600 0 0 173 c0 195 8 225 71 259 32 17 100 18 1529
18 1429 0 1497 -1 1529 -18z"/>
</g>
</svg>
