<?xml version="1.0" standalone="no"?>
<!DOCTYPE svg PUBLIC "-//W3C//DTD SVG 20010904//EN"
 "http://www.w3.org/TR/2001/REC-SVG-20010904/DTD/svg10.dtd">
<svg version="1.0" xmlns="http://www.w3.org/2000/svg"
 width="512.000000pt" height="512.000000pt" viewBox="0 0 512.000000 512.000000"
 preserveAspectRatio="xMidYMid meet">
<metadata>
Created by potrace 1.16, written by Peter Selinger 2001-2019
</metadata>
<g transform="translate(0.000000,512.000000) scale(0.100000,-0.100000)"
fill="#000000" stroke="none">
<path d="M1447 5022 c-89 -60 -110 -149 -106 -442 3 -205 2 -220 -24 -325 -55
-222 -46 -399 27 -551 96 -199 261 -328 501 -390 195 -51 502 -43 685 17 195
64 358 198 438 359 23 47 49 117 58 155 23 98 14 264 -23 410 -26 105 -27 119
-24 325 3 226 -5 294 -40 367 -28 58 -70 86 -135 91 -112 9 -227 -56 -313
-179 -28 -39 -51 -74 -53 -78 -2 -5 -43 -2 -93 5 -118 17 -259 17 -370 0 -49
-8 -90 -13 -90 -12 0 0 -22 34 -49 74 -82 123 -174 182 -291 189 -57 3 -75 1
-98 -15z m164 -181 c42 -26 94 -93 155 -199 10 -18 30 -36 43 -39 14 -3 85 2
159 12 167 22 207 22 376 0 155 -21 180 -17 211 33 100 162 162 226 213 220
37 -4 44 -39 41 -223 -1 -88 -3 -191 -3 -230 0 -44 8 -100 22 -150 33 -120 50
-261 41 -342 -22 -181 -171 -356 -360 -422 -142 -50 -378 -68 -544 -41 -256
41 -436 185 -499 400 -30 100 -18 257 35 449 19 68 20 86 11 225 -10 140 -3
300 13 326 11 17 39 11 86 -19z"/>
<path d="M1433 3308 c-109 -117 -222 -319 -292 -524 -67 -196 -95 -367 -106
-634 -10 -239 -28 -339 -112 -595 -25 -77 -58 -189 -73 -248 l-27 -108 -48 53
c-142 158 -207 326 -206 536 1 336 84 566 310 852 117 148 161 233 161 309 0
65 -32 141 -76 183 -64 59 -166 83 -245 57 -59 -20 -164 -96 -231 -167 -215
-229 -356 -584 -399 -1006 -15 -154 -6 -485 16 -581 75 -330 232 -598 468
-803 90 -77 229 -175 267 -187 11 -3 31 -31 45 -63 79 -173 232 -275 294 -196
30 39 27 80 -8 112 -17 15 -45 41 -65 59 -41 38 -88 132 -110 226 -39 156 -36
443 5 633 11 53 50 187 85 297 86 269 102 353 119 647 18 326 51 484 144 700
51 117 108 212 186 310 71 90 79 119 44 164 -16 20 -29 26 -58 26 -33 0 -45
-7 -88 -52z m-586 -300 c50 -47 28 -104 -110 -277 -171 -216 -256 -391 -309
-634 -18 -85 -22 -135 -22 -292 0 -167 2 -200 22 -270 53 -189 173 -375 317
-488 l50 -39 5 -167 c3 -91 4 -168 3 -170 -6 -9 -118 87 -195 167 -99 103
-161 188 -216 298 -120 235 -158 443 -140 768 24 449 161 814 385 1027 102 98
164 120 210 77z"/>
<path d="M2741 3334 c-35 -44 -28 -85 27 -151 144 -173 239 -369 302 -621 14
-57 41 -82 85 -82 44 0 85 37 85 75 0 35 -34 167 -66 257 -59 164 -172 359
-281 486 -49 56 -58 62 -93 62 -30 0 -43 -6 -59 -26z"/>
<path d="M3223 2378 c-55 -61 -76 -227 -48 -373 10 -49 21 -155 24 -236 6
-142 7 -147 44 -221 87 -177 260 -268 508 -268 179 0 302 36 409 121 110 87
160 205 160 376 0 68 7 141 21 206 33 161 14 332 -44 395 -52 57 -260 -8 -356
-112 -24 -26 -25 -26 -179 -26 l-154 0 -51 45 c-112 98 -285 146 -334 93z
m246 -244 l65 -63 224 0 225 0 61 58 c64 61 120 96 136 86 13 -8 12 -127 -1
-185 -6 -25 -14 -113 -18 -195 -7 -122 -13 -160 -31 -203 -58 -135 -225 -202
-451 -180 -139 13 -235 72 -285 174 -23 48 -27 71 -35 207 -4 83 -12 172 -18
197 -11 49 -15 173 -5 183 14 14 73 -21 133 -79z"/>
<path d="M1464 1899 c-18 -20 -19 -49 -24 -654 l-5 -633 -53 -55 c-77 -82 -96
-131 -97 -247 0 -85 3 -99 25 -133 16 -24 45 -47 80 -65 53 -26 62 -27 240
-31 116 -2 204 1 235 8 100 23 171 97 200 207 12 48 15 145 15 575 0 507 0
517 -21 543 -29 36 -89 37 -117 1 -19 -24 -20 -46 -24 -543 -4 -567 -5 -570
-64 -609 -25 -16 -48 -18 -189 -16 -175 2 -210 9 -217 45 -10 53 12 107 68
167 90 97 84 46 84 769 0 632 0 640 -21 666 -27 34 -86 37 -115 5z"/>
<path d="M2741 1894 c-21 -26 -21 -34 -21 -671 0 -634 0 -644 21 -685 11 -22
40 -62 64 -87 23 -25 48 -56 54 -69 15 -29 17 -100 3 -114 -15 -15 -221 -30
-309 -23 -84 8 -116 27 -134 83 -8 25 -13 196 -16 549 -5 492 -6 514 -25 538
-28 36 -88 35 -118 -2 -21 -27 -21 -30 -18 -567 3 -536 3 -542 26 -597 29 -71
81 -123 149 -149 46 -17 78 -20 226 -20 239 0 310 20 368 102 18 25 24 49 27
112 5 109 -19 174 -96 258 l-57 61 -5 632 c-5 605 -6 634 -24 654 -29 32 -88
29 -115 -5z"/>
<path d="M4341 1414 c-28 -35 -27 -87 1 -113 11 -11 42 -27 67 -36 85 -28 202
-105 282 -185 60 -60 85 -95 117 -161 49 -103 64 -171 63 -297 -1 -232 -103
-366 -285 -374 -68 -3 -100 21 -98 73 1 45 29 68 94 79 138 22 197 103 185
252 -9 103 -38 148 -97 148 -61 0 -75 -25 -75 -133 l0 -91 -30 -8 c-16 -4 -46
-10 -66 -13 -55 -8 -123 -65 -154 -130 -24 -47 -27 -64 -23 -124 4 -82 35
-135 106 -186 37 -25 55 -30 116 -33 301 -16 496 201 496 549 0 228 -64 395
-214 555 -78 84 -202 171 -314 220 -96 42 -143 44 -171 8z"/>
<path d="M3189 1347 c-9 -7 -20 -21 -26 -32 -22 -43 -43 -168 -43 -261 0 -83
5 -110 34 -198 19 -55 55 -143 80 -195 25 -52 46 -107 46 -122 0 -30 -19 -79
-30 -79 -18 0 -95 -79 -111 -114 -23 -51 -24 -137 -3 -182 9 -18 33 -44 53
-56 34 -22 47 -23 212 -23 l176 0 51 32 52 32 46 -32 46 -32 152 -3 c176 -4
222 5 274 52 32 30 36 39 40 95 6 83 -16 139 -75 191 -25 22 -49 40 -53 40
-14 0 -30 52 -30 99 0 27 14 93 31 147 17 55 33 123 36 152 5 46 3 56 -17 77
-33 35 -91 35 -119 0 -11 -14 -23 -40 -27 -58 -3 -18 -19 -74 -35 -126 -24
-78 -29 -111 -29 -198 0 -95 3 -110 27 -154 16 -30 46 -64 75 -84 68 -49 64
-62 -26 -70 -101 -10 -173 1 -187 27 -23 42 -30 87 -39 238 -12 185 -21 205
-90 205 -70 0 -78 -20 -90 -210 -8 -149 -20 -213 -42 -241 -13 -17 -109 -27
-192 -19 -65 6 -73 9 -69 26 3 10 19 28 37 38 85 53 116 115 116 233 0 79 -2
86 -59 208 -33 69 -67 153 -77 185 -21 73 -21 191 1 274 20 80 19 98 -10 126
-27 27 -79 33 -106 12z"/>
</g>
</svg>
