<?xml version="1.0" standalone="no"?>
<!DOCTYPE svg PUBLIC "-//W3C//DTD SVG 20010904//EN"
 "http://www.w3.org/TR/2001/REC-SVG-20010904/DTD/svg10.dtd">
<svg version="1.0" xmlns="http://www.w3.org/2000/svg"
 width="512.000000pt" height="512.000000pt" viewBox="0 0 512.000000 512.000000"
 preserveAspectRatio="xMidYMid meet">
<metadata>
Created by potrace 1.16, written by Peter Selinger 2001-2019
</metadata>
<g transform="translate(0.000000,512.000000) scale(0.100000,-0.100000)"
fill="#000000" stroke="none">
<path d="M1007 4112 c-15 -17 -17 -60 -17 -409 0 -365 1 -391 18 -406 30 -27
87 -22 111 9 20 26 21 38 21 350 l0 324 324 0 c312 0 324 1 350 21 20 16 26
29 26 58 0 73 12 71 -427 71 -365 0 -391 -1 -406 -18z"/>
<path d="M3297 4112 c-27 -30 -22 -87 9 -111 26 -20 38 -21 350 -21 l324 0 0
-324 c0 -312 1 -324 21 -350 16 -20 29 -26 58 -26 73 0 71 -12 71 427 0 365
-1 391 -18 406 -17 15 -60 17 -409 17 -365 0 -391 -1 -406 -18z"/>
<path d="M2334 3325 c-335 -61 -656 -244 -945 -541 -125 -130 -169 -187 -169
-225 0 -36 71 -129 190 -249 281 -282 600 -461 919 -514 119 -20 337 -21 458
-1 318 52 643 233 924 517 121 122 189 211 189 247 0 16 -14 48 -32 72 -45 62
-219 240 -309 315 -234 195 -518 334 -775 379 -105 18 -350 19 -450 0z m431
-151 c299 -57 585 -224 859 -503 l109 -111 -65 -72 c-190 -213 -467 -406 -706
-492 -235 -84 -515 -90 -760 -14 -242 74 -550 282 -750 506 l-66 73 135 133
c74 73 172 161 219 195 342 253 688 349 1025 285z"/>
<path d="M2438 3064 c-187 -45 -338 -198 -383 -386 -88 -372 251 -711 623
-623 191 45 342 196 387 387 88 373 -254 713 -627 622z m270 -169 c76 -35 153
-112 188 -189 24 -51 28 -74 28 -146 1 -105 -27 -173 -104 -254 -74 -78 -150
-110 -260 -110 -72 -1 -94 4 -145 27 -79 37 -156 114 -191 191 -24 51 -28 74
-28 146 -1 72 4 94 27 145 48 103 149 188 254 215 62 15 167 4 231 -25z"/>
<path d="M1007 1822 c-15 -17 -17 -60 -17 -409 0 -365 1 -391 18 -406 17 -15
60 -17 409 -17 365 0 391 1 406 18 27 30 22 87 -9 111 -26 20 -38 21 -350 21
l-324 0 0 324 c0 312 -1 324 -21 350 -25 32 -86 37 -112 8z"/>
<path d="M4001 1814 c-20 -26 -21 -38 -21 -350 l0 -324 -324 0 c-312 0 -324
-1 -350 -21 -20 -16 -26 -29 -26 -58 0 -73 -12 -71 427 -71 365 0 391 1 406
18 15 17 17 60 17 409 0 365 -1 391 -18 406 -30 27 -87 22 -111 -9z"/>
</g>
</svg>
