<?xml version="1.0" standalone="no"?>
<!DOCTYPE svg PUBLIC "-//W3C//DTD SVG 20010904//EN"
 "http://www.w3.org/TR/2001/REC-SVG-20010904/DTD/svg10.dtd">
<svg version="1.0" xmlns="http://www.w3.org/2000/svg"
 width="512.000000pt" height="512.000000pt" viewBox="0 0 512.000000 512.000000"
 preserveAspectRatio="xMidYMid meet">
<metadata>
Created by potrace 1.16, written by Peter Selinger 2001-2019
</metadata>
<g transform="translate(0.000000,512.000000) scale(0.100000,-0.100000)"
fill="#000000" stroke="none">
<path d="M2510 4410 c-371 -79 -668 -326 -811 -673 -59 -143 -80 -267 -86
-508 l-6 -207 -81 -84 c-62 -63 -92 -104 -124 -169 -70 -142 -72 -156 -72
-746 l0 -523 -145 0 c-124 0 -151 -3 -183 -19 -178 -92 -157 -360 32 -416 38
-12 110 -15 313 -15 l263 0 0 -330 c0 -377 3 -394 64 -406 93 -17 264 48 351
133 114 113 144 199 152 435 l6 167 721 3 c682 3 723 4 756 22 85 45 124 109
125 206 0 54 -5 73 -28 113 -15 26 -47 60 -69 75 l-42 27 -448 3 -448 3 61 72
c124 148 212 304 273 487 61 182 67 237 73 623 5 345 5 347 27 351 108 21 146
32 208 63 150 75 264 231 290 396 l13 77 72 0 c65 0 73 2 92 26 16 21 21 41
21 89 0 87 -26 225 -55 298 -83 204 -277 372 -491 427 -70 18 -110 20 -408 19
-281 0 -344 -3 -416 -19z m497 -1087 c-3 -957 -3 -969 -25 -1065 -96 -420
-356 -747 -739 -930 -101 -48 -143 -60 -86 -23 63 41 194 159 250 227 121 147
194 280 251 459 46 146 57 225 56 419 0 162 -2 181 -27 255 -102 309 -384 501
-707 482 -52 -3 -123 -14 -157 -25 l-63 -20 0 92 c1 206 22 335 80 484 86 224
309 446 533 533 158 60 251 75 500 78 l138 1 -4 -967z m287 942 c226 -59 393
-253 431 -502 l7 -43 -286 0 -286 0 0 280 0 280 38 0 c21 0 64 -7 96 -15z
m242 -741 c-19 -144 -165 -300 -306 -329 -19 -3 -43 -9 -52 -11 -17 -5 -18 9
-18 190 l0 196 191 0 192 0 -7 -46z m-1404 -535 c98 -20 196 -75 273 -153 39
-39 83 -94 98 -123 132 -247 64 -698 -150 -1002 -65 -93 -205 -228 -307 -295
-148 -99 -342 -171 -508 -190 l-58 -6 0 659 0 660 25 78 c83 264 359 427 627
372z m-802 -1709 l0 -80 -117 0 c-75 0 -127 5 -143 13 -30 15 -45 54 -36 91
10 42 54 55 184 56 l112 0 0 -80z m2286 47 c32 -37 30 -62 -5 -98 l-29 -29
-624 0 -623 1 55 29 c30 15 87 51 125 78 l70 50 503 -1 504 -2 24 -28z m-1588
-414 c-4 -152 -8 -186 -27 -235 -35 -90 -125 -173 -219 -202 l-22 -7 2 293 3
293 75 7 c41 4 95 12 120 17 25 5 51 9 59 10 11 1 13 -30 9 -176z"/>
<path d="M2415 3897 c-59 -28 -105 -78 -105 -113 0 -31 42 -74 72 -74 13 0 43
14 68 30 61 40 112 40 171 0 52 -35 77 -37 113 -9 38 30 36 82 -4 119 -50 46
-98 64 -185 68 -68 2 -88 -1 -130 -21z"/>
<path d="M2126 2594 c-9 -8 -18 -25 -21 -37 -3 -12 -5 -174 -3 -360 l3 -339
24 -19 c30 -25 76 -24 101 1 19 19 20 33 20 378 0 335 -1 360 -18 375 -23 21
-86 22 -106 1z"/>
<path d="M1756 2517 l-26 -26 0 -351 0 -351 25 -24 c13 -14 36 -25 50 -25 14
0 37 11 50 25 l25 24 0 349 c0 389 1 385 -67 398 -26 5 -37 1 -57 -19z"/>
</g>
</svg>
