<?xml version="1.0" standalone="no"?>
<!DOCTYPE svg PUBLIC "-//W3C//DTD SVG 20010904//EN"
 "http://www.w3.org/TR/2001/REC-SVG-20010904/DTD/svg10.dtd">
<svg version="1.0" xmlns="http://www.w3.org/2000/svg"
 width="512.000000pt" height="512.000000pt" viewBox="0 0 512.000000 512.000000"
 preserveAspectRatio="xMidYMid meet">
<metadata>
Created by potrace 1.16, written by Peter Selinger 2001-2019
</metadata>
<g transform="translate(0.000000,512.000000) scale(0.100000,-0.100000)"
fill="#000000" stroke="none">
<path d="M3655 5105 c-250 -67 -422 -231 -496 -475 -31 -102 -31 -259 -1 -380
36 -141 25 -251 -39 -369 -44 -83 -1809 -1847 -1886 -1885 -119 -59 -225 -69
-363 -34 -109 27 -267 29 -360 5 -246 -65 -435 -256 -494 -498 -23 -95 -21
-256 5 -349 72 -262 287 -453 556 -495 40 -6 42 -8 48 -48 22 -147 84 -266
195 -378 69 -70 101 -94 170 -127 115 -57 183 -72 313 -72 126 0 200 16 302
65 177 86 311 251 362 445 24 93 21 252 -6 360 -34 138 -24 244 35 363 38 76
1802 1843 1884 1886 120 64 224 76 366 42 120 -29 216 -35 309 -18 253 47 438
201 527 439 27 72 32 99 36 209 4 107 1 137 -17 204 -70 253 -270 443 -520
492 l-78 16 -16 78 c-49 248 -238 449 -487 518 -88 25 -265 28 -345 6z m245
-135 c98 -15 219 -79 295 -155 97 -96 155 -235 155 -366 0 -70 29 -99 99 -99
131 0 270 -58 366 -155 112 -111 176 -284 159 -424 -29 -242 -198 -427 -434
-477 -84 -18 -148 -14 -275 17 -155 37 -312 17 -458 -57 -67 -35 -135 -101
-988 -953 -848 -848 -918 -921 -951 -986 -63 -124 -73 -166 -73 -305 0 -87 5
-140 17 -176 56 -175 11 -372 -115 -510 -166 -183 -407 -230 -626 -123 -183
90 -301 274 -301 470 0 72 -29 99 -107 99 -222 1 -431 164 -497 390 -19 64
-22 194 -6 265 31 139 152 291 280 353 132 65 241 73 415 31 155 -37 312 -17
458 57 67 35 135 101 988 953 852 853 918 921 953 988 74 146 94 303 57 458
-31 127 -35 191 -17 275 45 212 209 379 416 424 80 18 108 19 190 6z"/>
<path d="M4547 4010 c-34 -27 -35 -64 -2 -126 30 -56 30 -66 6 -120 -25 -54
-74 -78 -141 -69 -44 6 -52 4 -75 -19 -31 -31 -32 -67 -2 -101 30 -35 111 -44
188 -22 161 47 241 235 166 389 -32 64 -43 76 -83 84 -21 4 -37 0 -57 -16z"/>
</g>
</svg>
