<?xml version="1.0" standalone="no"?>
<!DOCTYPE svg PUBLIC "-//W3C//DTD SVG 20010904//EN"
 "http://www.w3.org/TR/2001/REC-SVG-20010904/DTD/svg10.dtd">
<svg version="1.0" xmlns="http://www.w3.org/2000/svg"
 width="512.000000pt" height="512.000000pt" viewBox="0 0 512.000000 512.000000"
 preserveAspectRatio="xMidYMid meet">
<metadata>
Created by potrace 1.16, written by Peter Selinger 2001-2019
</metadata>
<g transform="translate(0.000000,512.000000) scale(0.100000,-0.100000)"
fill="#000000" stroke="none">
<path d="M1861 4805 l-137 -134 -394 -3 c-355 -3 -398 -5 -427 -21 -49 -26
-103 -85 -127 -136 l-21 -46 0 -2040 c0 -1876 1 -2043 17 -2076 25 -56 88
-120 143 -145 l50 -24 1595 0 1595 0 50 24 c55 25 118 89 143 145 16 33 17
200 17 2076 l0 2040 -21 46 c-26 55 -77 108 -130 135 -36 18 -67 19 -429 22
l-389 3 -137 134 -137 135 -562 0 -562 0 -137 -135z m1306 -127 l113 -113 0
-107 c0 -95 -2 -110 -20 -128 -20 -20 -33 -20 -700 -20 -667 0 -680 0 -700 20
-18 18 -20 33 -20 127 l0 108 112 112 113 113 495 0 495 0 112 -112z m-1477
-247 c0 -49 3 -96 6 -105 6 -14 -22 -16 -267 -16 -239 0 -275 -2 -291 -17 -17
-15 -18 -87 -18 -1869 l0 -1853 22 -15 c20 -14 171 -16 1418 -16 1247 0 1398
2 1418 16 l22 15 0 1851 c0 1709 -1 1853 -17 1870 -15 17 -37 18 -291 18 -246
0 -274 2 -268 16 3 9 6 56 6 105 l0 89 354 0 355 0 34 -33 c26 -24 37 -44 41
-77 4 -25 6 -934 4 -2020 -3 -1921 -4 -1976 -22 -2003 -41 -61 69 -57 -1636
-57 -1705 0 -1595 -4 -1636 57 -18 27 -19 82 -22 2003 -2 1086 0 1995 4 2020
4 33 15 53 41 77 l34 33 355 0 354 0 0 -89z m2160 -2006 l0 -1735 -1290 0
-1290 0 0 1735 0 1735 1290 0 1290 0 0 -1735z"/>
<path d="M2335 4605 c-32 -31 -33 -74 -2 -103 22 -21 32 -22 228 -22 202 0
206 0 227 23 29 31 28 72 -3 102 -24 25 -25 25 -225 25 -200 0 -201 0 -225
-25z"/>
<path d="M2015 3670 l-161 -160 -74 75 c-84 84 -117 95 -158 52 -44 -47 -32
-72 91 -195 156 -156 131 -161 374 81 182 181 193 194 193 230 0 47 -28 77
-72 77 -28 0 -52 -21 -193 -160z"/>
<path d="M2507 3632 c-24 -27 -22 -85 4 -108 20 -18 43 -19 496 -19 l475 0 19
24 c25 30 24 76 -1 101 -19 19 -33 20 -498 20 -451 0 -480 -1 -495 -18z"/>
<path d="M2015 2900 l-160 -160 -75 75 c-62 62 -81 75 -107 75 -40 0 -73 -33
-73 -74 0 -25 19 -49 113 -143 93 -93 118 -113 143 -113 25 0 59 30 227 198
175 175 197 201 197 230 0 42 -30 72 -73 72 -28 0 -51 -19 -192 -160z"/>
<path d="M2507 2862 c-23 -25 -22 -85 1 -105 17 -15 66 -17 495 -17 464 0 478
1 497 20 24 24 26 67 4 98 l-15 22 -483 0 c-455 0 -484 -1 -499 -18z"/>
<path d="M2018 2133 l-157 -157 -75 72 c-62 61 -79 72 -108 72 -43 0 -78 -34
-78 -75 0 -24 21 -50 113 -142 92 -92 118 -113 142 -113 24 0 61 32 227 197
177 177 198 201 198 230 0 43 -30 73 -73 73 -28 0 -51 -19 -189 -157z"/>
<path d="M2517 2100 c-21 -17 -27 -30 -27 -59 0 -74 -22 -71 513 -71 464 0
478 1 497 20 25 25 26 71 1 101 l-19 24 -469 3 c-464 3 -470 2 -496 -18z"/>
<path d="M2018 1363 l-157 -157 -75 72 c-64 62 -79 72 -110 72 -45 0 -76 -29
-76 -72 0 -26 16 -48 108 -140 157 -158 130 -164 373 78 178 177 199 202 199
231 0 43 -30 73 -73 73 -28 0 -51 -19 -189 -157z"/>
<path d="M2525 1338 c-29 -16 -35 -28 -35 -70 0 -70 -14 -68 517 -68 l472 0
21 22 c27 30 26 73 -5 103 l-24 25 -463 0 c-326 -1 -469 -4 -483 -12z"/>
</g>
</svg>
