<?xml version="1.0" standalone="no"?>
<!DOCTYPE svg PUBLIC "-//W3C//DTD SVG 20010904//EN"
 "http://www.w3.org/TR/2001/REC-SVG-20010904/DTD/svg10.dtd">
<svg version="1.0" xmlns="http://www.w3.org/2000/svg"
 width="512.000000pt" height="512.000000pt" viewBox="0 0 512.000000 512.000000"
 preserveAspectRatio="xMidYMid meet">
<metadata>
Created by potrace 1.16, written by Peter Selinger 2001-2019
</metadata>
<g transform="translate(0.000000,512.000000) scale(0.100000,-0.100000)"
fill="#000000" stroke="none">
<path d="M2044 4279 c-495 -37 -900 -471 -1165 -1247 -45 -132 -131 -460 -159
-604 -6 -32 -15 -58 -19 -58 -4 0 -63 -32 -132 -71 -218 -125 -380 -263 -470
-399 -72 -108 -99 -197 -99 -325 0 -273 213 -517 564 -649 125 -47 249 -69
401 -69 166 -1 186 3 505 100 449 136 607 166 678 129 42 -21 70 -78 82 -166
6 -40 15 -80 20 -90 40 -74 156 -62 181 18 8 29 8 57 -4 124 -27 155 -84 245
-185 295 -48 23 -72 28 -157 31 -145 6 -235 -14 -661 -143 -281 -86 -331 -97
-449 -97 -245 0 -480 90 -635 242 -105 102 -135 164 -135 280 0 77 3 92 33
151 73 146 266 311 503 429 l79 40 138 -34 c292 -74 781 -162 1117 -201 955
-111 1829 -72 2570 115 186 47 423 130 451 158 33 34 32 88 -5 196 -93 272
-313 524 -616 701 -49 29 -107 60 -127 68 l-38 16 0 110 c0 267 -83 444 -243
517 -51 24 -78 29 -157 32 -107 4 -174 -14 -249 -69 -51 -37 -111 -127 -135
-204 -10 -31 -22 -53 -26 -48 -4 4 -27 35 -51 68 -65 90 -229 255 -320 321
-220 161 -478 268 -759 314 -147 24 -213 28 -326 19z m281 -218 c189 -33 332
-79 485 -156 322 -162 573 -451 685 -789 24 -73 35 -92 60 -107 39 -24 72 -24
112 1 42 25 46 53 34 215 -19 245 23 391 126 444 35 18 119 13 163 -9 51 -26
85 -77 106 -160 14 -53 16 -93 10 -221 -7 -184 -5 -189 90 -228 164 -67 387
-221 496 -342 73 -80 157 -209 187 -286 l20 -52 -107 -35 c-278 -89 -650 -159
-1072 -202 -215 -21 -835 -30 -1082 -15 -386 24 -773 71 -1143 141 -197 37
-564 116 -572 124 -6 6 28 159 72 321 175 646 450 1101 775 1279 172 93 331
116 555 77z"/>
<path d="M4019 2926 c-100 -21 -185 -98 -210 -189 -48 -179 58 -346 238 -373
187 -28 355 156 313 344 -36 160 -179 251 -341 218z m120 -220 c50 -53 11
-140 -61 -138 -41 1 -78 40 -78 83 0 69 92 105 139 55z"/>
</g>
</svg>
