<?xml version="1.0" standalone="no"?>
<!DOCTYPE svg PUBLIC "-//W3C//DTD SVG 20010904//EN"
 "http://www.w3.org/TR/2001/REC-SVG-20010904/DTD/svg10.dtd">
<svg version="1.0" xmlns="http://www.w3.org/2000/svg"
 width="512.000000pt" height="512.000000pt" viewBox="0 0 512.000000 512.000000"
 preserveAspectRatio="xMidYMid meet">
<metadata>
Created by potrace 1.16, written by Peter Selinger 2001-2019
</metadata>
<g transform="translate(0.000000,512.000000) scale(0.100000,-0.100000)"
fill="#000000" stroke="none">
<path d="M2380 4923 c-72 -11 -222 -48 -279 -70 -376 -141 -677 -455 -794
-829 -45 -143 -59 -239 -63 -419 -2 -145 -6 -179 -24 -230 -30 -80 -23 -154
21 -243 l32 -65 27 -443 c24 -391 29 -446 45 -464 17 -19 31 -20 304 -20 222
-1 290 -4 304 -14 34 -26 17 -33 -90 -39 -176 -9 -283 -57 -396 -177 -70 -74
-74 -76 -155 -98 -399 -106 -687 -418 -757 -821 -22 -125 -22 -747 1 -779 l15
-22 1989 0 1989 0 15 22 c23 32 23 654 1 779 -68 390 -348 704 -725 812 -47
14 -110 28 -140 32 -50 6 -58 11 -88 51 -86 116 -264 203 -414 204 -51 0 -61
13 -30 36 13 10 81 13 303 14 273 0 287 1 304 20 16 18 21 73 45 464 l27 443
34 69 c30 60 34 78 34 144 0 56 -6 87 -23 124 -20 43 -21 58 -16 145 8 114 -8
267 -41 397 -127 501 -539 881 -1049 969 -81 14 -336 19 -406 8z m300 -147
c248 -17 538 -160 722 -354 126 -134 214 -281 267 -447 36 -112 49 -183 58
-306 l6 -97 -44 11 c-24 7 -48 18 -53 26 -47 76 -136 140 -260 190 -51 21
-115 50 -142 66 -61 36 -157 126 -197 185 -16 25 -37 51 -45 58 -27 21 -67 13
-113 -22 -94 -74 -222 -122 -399 -151 -323 -52 -456 -85 -625 -152 -126 -50
-258 -117 -297 -152 -23 -20 -52 -33 -91 -40 -32 -6 -63 -14 -69 -17 -8 -5 -9
22 -4 95 14 228 75 412 193 590 199 298 524 492 872 520 53 4 107 6 121 5 14
-2 59 -5 100 -8z m327 -924 c87 -87 161 -134 284 -183 120 -47 176 -85 216
-146 20 -30 20 -81 -2 -409 -16 -240 -31 -324 -79 -443 -94 -231 -305 -435
-538 -520 -124 -46 -179 -55 -328 -55 -120 0 -160 4 -230 23 -309 83 -555 312
-656 608 -18 54 -37 134 -43 178 -15 122 -35 499 -27 528 13 52 67 99 171 148
219 103 390 154 630 189 227 33 417 88 498 145 12 8 22 15 24 15 1 0 37 -35
80 -78z m-1552 -575 l7 -148 -30 15 c-64 33 -95 120 -68 191 14 37 72 103 81
93 1 -2 6 -70 10 -151z m2268 113 c33 -38 51 -94 43 -132 -9 -46 -44 -96 -79
-114 l-30 -16 6 98 c4 55 7 120 7 147 0 56 16 62 53 17z m-2248 -459 c40 -261
102 -417 235 -582 l51 -64 -142 -3 c-78 -1 -143 -1 -145 0 -2 3 -44 641 -44
680 0 11 6 15 20 11 13 -4 21 -17 25 -42z m2195 -302 c-12 -189 -23 -345 -24
-347 -2 -1 -67 -1 -145 0 l-142 3 51 64 c133 165 195 320 235 583 4 23 12 38
23 40 9 3 18 3 20 2 2 -1 -6 -157 -18 -345z m-1467 -628 c123 -43 208 -56 357
-56 149 0 234 13 357 56 45 16 84 29 87 29 3 0 6 -15 6 -33 0 -28 -27 -61
-221 -270 -122 -130 -225 -237 -229 -237 -4 0 -107 107 -229 237 -194 209
-221 242 -221 270 0 18 3 33 6 33 3 0 42 -13 87 -29z m51 -416 c102 -110 185
-204 183 -209 -6 -19 -252 -204 -256 -193 -3 7 -42 145 -86 307 -61 219 -80
300 -73 314 12 22 -17 50 232 -219z m851 192 c-3 -7 -41 -145 -85 -307 -45
-162 -82 -296 -83 -297 -5 -5 -252 198 -252 207 0 5 90 107 200 225 172 186
201 213 212 199 6 -9 10 -21 8 -27z m-1255 -747 l0 -700 -580 0 -580 0 0 285
c0 305 7 371 54 501 81 223 277 425 500 514 43 17 79 30 79 28 1 -2 1 -127 -1
-279 l-3 -275 -42 -21 c-96 -47 -157 -134 -157 -225 0 -37 -4 -50 -21 -58 -59
-32 -79 -147 -36 -211 39 -59 132 -87 190 -58 101 52 122 167 47 253 -50 57
-32 124 42 162 65 34 148 -10 169 -90 10 -37 9 -41 -15 -59 -86 -62 -72 -211
24 -259 40 -20 101 -23 133 -7 100 52 122 167 48 252 -17 19 -31 50 -36 77
-17 104 -79 192 -161 226 l-34 14 0 254 c0 241 6 302 32 331 4 5 84 17 176 26
92 9 168 17 170 18 1 0 2 -314 2 -699z m1702 662 c4 -4 14 -34 22 -67 13 -46
16 -117 16 -326 l0 -266 -39 -26 c-74 -49 -103 -164 -61 -246 66 -131 246
-146 331 -28 60 82 47 183 -32 260 l-49 47 -1 268 c0 147 -4 290 -9 317 -4 28
-7 51 -5 53 7 8 194 -62 245 -90 211 -120 355 -300 427 -535 26 -86 27 -95 31
-405 l4 -318 -581 0 -581 0 0 698 0 698 137 -13 c76 -8 141 -17 145 -21z
m-1512 -572 c33 -122 41 -137 77 -151 36 -13 61 1 217 126 80 63 148 115 151
115 3 0 5 -198 5 -440 l0 -440 -245 0 -245 0 0 457 c0 251 2 454 4 452 2 -2
18 -56 36 -119z m1080 -335 l0 -455 -245 0 -245 0 0 440 c0 242 2 440 5 440 3
0 71 -52 151 -115 150 -120 181 -139 211 -128 39 13 52 39 84 154 17 65 34
119 36 119 1 0 3 -205 3 -455z"/>
<path d="M827 963 c-34 -9 -47 -56 -47 -171 0 -131 12 -156 75 -156 64 0 75
24 75 169 0 122 0 124 -26 144 -26 21 -41 23 -77 14z"/>
</g>
</svg>
