<?xml version="1.0" standalone="no"?>
<!DOCTYPE svg PUBLIC "-//W3C//DTD SVG 20010904//EN"
 "http://www.w3.org/TR/2001/REC-SVG-20010904/DTD/svg10.dtd">
<svg version="1.0" xmlns="http://www.w3.org/2000/svg"
 width="512.000000pt" height="512.000000pt" viewBox="0 0 512.000000 512.000000"
 preserveAspectRatio="xMidYMid meet">
<metadata>
Created by potrace 1.16, written by Peter Selinger 2001-2019
</metadata>
<g transform="translate(0.000000,512.000000) scale(0.100000,-0.100000)"
fill="#000000" stroke="none">
<path d="M2230 4851 c-83 -26 -161 -103 -185 -184 -22 -74 -21 -492 1 -566 30
-103 144 -191 247 -191 l47 0 0 -725 0 -725 -918 -2 -917 -3 -66 -32 c-80 -39
-150 -111 -187 -191 l-27 -57 -3 -807 c-2 -799 -2 -807 19 -862 42 -112 136
-202 249 -236 64 -20 92 -20 1990 -18 l1925 3 60 29 c79 39 149 110 188 194
l32 67 3 1685 3 1685 62 30 c67 33 117 92 137 163 5 21 10 146 10 283 0 288
-6 316 -80 389 -85 86 15 80 -1354 79 -666 0 -1222 -4 -1236 -8z m2453 -154
c16 -10 37 -32 47 -50 18 -29 20 -52 20 -255 0 -254 -4 -274 -69 -310 l-39
-22 -1176 0 c-1295 0 -1226 -3 -1266 62 -18 31 -20 50 -20 271 l0 237 33 36
c18 20 47 39 67 44 19 4 562 7 1205 7 1110 -2 1172 -3 1198 -20z m-143 -2444
c0 -1595 -1 -1660 -19 -1698 -23 -50 -83 -108 -136 -132 -37 -17 -88 -18 -647
-21 l-607 -3 37 72 37 72 3 223 3 224 392 0 c360 0 395 2 433 19 59 27 109 75
138 133 l26 52 0 987 0 987 -28 53 c-16 31 -46 68 -70 86 -84 64 -69 63 -879
63 l-733 0 0 270 0 270 1025 0 1025 0 0 -1657z m-560 949 c19 -9 43 -33 55
-52 20 -34 20 -51 23 -930 2 -492 0 -919 -3 -949 -5 -41 -14 -61 -40 -90 l-33
-36 -386 -3 -386 -3 0 231 0 230 139 0 c125 0 141 2 165 21 20 16 26 29 26 59
0 30 -6 43 -26 59 -24 19 -40 21 -165 21 l-139 0 0 80 0 80 139 0 c125 0 141
2 165 21 20 16 26 29 26 59 0 30 -6 43 -26 59 -24 19 -40 21 -164 21 l-137 0
-6 55 c-16 160 -155 303 -326 335 -29 5 -130 10 -222 10 l-169 0 0 95 0 95
503 0 c567 0 547 -3 547 71 0 26 -7 46 -20 59 -19 19 -33 20 -525 20 l-505 0
0 200 0 200 728 0 c672 0 730 -1 762 -18z m-1079 -893 c51 -16 103 -60 137
-117 l27 -47 3 -765 c2 -692 1 -769 -14 -809 -23 -60 -70 -110 -129 -137 l-50
-24 -1155 0 c-1140 0 -1156 1 -1200 21 -60 27 -98 64 -126 124 l-24 50 0 760
c0 743 1 761 21 805 27 60 64 98 124 126 l50 24 1149 0 c832 0 1159 -3 1187
-11z"/>
<path d="M2381 4584 c-19 -25 -21 -40 -21 -190 0 -100 4 -173 11 -188 26 -55
112 -55 138 0 7 15 11 88 11 188 0 150 -2 165 -21 190 -16 20 -29 26 -59 26
-30 0 -43 -6 -59 -26z"/>
<path d="M2730 4590 c-19 -19 -20 -33 -20 -204 l0 -185 27 -21 c33 -26 79 -21
106 11 15 18 17 44 17 198 0 173 -1 178 -23 199 -30 28 -80 29 -107 2z"/>
<path d="M3070 4590 c-19 -19 -20 -33 -20 -204 l0 -185 27 -21 c33 -26 79 -21
106 11 15 18 17 44 17 200 0 166 -1 180 -20 199 -12 12 -33 20 -55 20 -22 0
-43 -8 -55 -20z"/>
<path d="M3411 4584 c-19 -25 -21 -40 -21 -199 0 -150 2 -176 18 -194 26 -32
72 -37 105 -11 l27 21 0 185 c0 171 -1 185 -20 204 -30 30 -83 27 -109 -6z"/>
<path d="M3751 4584 c-19 -25 -21 -40 -21 -199 0 -150 2 -176 18 -194 26 -32
72 -37 105 -11 l27 21 0 189 c0 184 -1 189 -22 204 -35 25 -83 20 -107 -10z"/>
<path d="M4102 4594 c-21 -15 -22 -20 -22 -204 l0 -189 27 -21 c33 -26 79 -21
106 11 15 18 17 44 17 194 0 159 -2 174 -21 199 -24 30 -72 35 -107 10z"/>
<path d="M4442 4594 c-21 -15 -22 -20 -22 -204 l0 -189 27 -21 c33 -26 79 -21
106 11 15 18 17 44 17 194 0 159 -2 174 -21 199 -24 30 -72 35 -107 10z"/>
<path d="M813 2079 c-70 -27 -142 -94 -178 -166 -27 -52 -30 -68 -30 -153 0
-85 3 -101 30 -153 37 -74 109 -140 183 -167 77 -29 205 -26 273 8 74 36 125
87 161 160 30 60 33 75 33 152 0 72 -5 94 -28 145 -36 76 -110 147 -183 175
-73 27 -189 27 -261 -1z m247 -168 c43 -34 80 -103 80 -151 0 -48 -37 -117
-80 -151 -97 -77 -237 -40 -291 76 -24 51 -24 99 0 150 54 116 194 153 291 76z"/>
<path d="M1583 2079 c-70 -27 -145 -100 -180 -174 -23 -51 -28 -73 -28 -145 0
-108 32 -182 106 -252 66 -61 136 -88 234 -88 138 0 250 67 310 187 27 52 30
68 30 153 0 85 -3 101 -30 153 -36 73 -109 140 -181 166 -73 28 -189 28 -261
0z m209 -139 c18 0 83 -69 99 -105 25 -54 24 -102 -3 -155 -59 -115 -196 -147
-292 -68 -44 36 -76 98 -76 148 0 113 121 213 230 188 19 -4 38 -8 42 -8z"/>
<path d="M2386 2084 c-149 -47 -239 -174 -239 -335 0 -61 6 -88 26 -132 31
-68 96 -135 162 -168 43 -21 64 -24 155 -24 94 0 110 3 155 27 70 37 137 112
165 184 30 79 25 196 -10 269 -31 64 -101 134 -165 164 -64 31 -179 38 -249
15z m194 -154 c93 -48 132 -167 84 -260 -30 -59 -111 -110 -176 -110 -76 1
-166 71 -187 147 -13 47 -13 59 -1 105 32 113 173 173 280 118z"/>
<path d="M834 1296 c-87 -28 -156 -90 -205 -186 -33 -64 -34 -213 -2 -282 98
-213 377 -270 552 -113 22 21 55 67 73 103 30 60 33 75 33 152 -1 66 -6 96
-23 134 -34 75 -84 129 -154 166 -55 30 -74 34 -148 37 -52 2 -101 -2 -126
-11z m195 -156 c48 -24 87 -70 101 -118 15 -56 12 -83 -15 -138 -68 -135 -245
-147 -331 -22 -109 157 74 366 245 278z"/>
<path d="M1608 1297 c-102 -38 -167 -99 -210 -194 -17 -37 -22 -67 -23 -133 0
-77 3 -92 33 -152 38 -77 92 -130 171 -166 82 -38 192 -37 278 2 73 33 143
103 176 174 34 72 31 207 -5 284 -32 70 -97 136 -163 167 -62 30 -199 39 -257
18z m191 -157 c170 -86 133 -325 -56 -365 -76 -16 -177 47 -209 130 -45 119
49 253 179 255 28 0 63 -8 86 -20z"/>
<path d="M2374 1296 c-87 -28 -156 -90 -205 -186 -33 -64 -34 -213 -2 -282 98
-213 377 -270 552 -113 22 21 55 67 73 103 30 60 33 75 33 152 -1 66 -6 96
-23 134 -34 75 -84 129 -154 166 -55 30 -74 34 -148 37 -52 2 -101 -2 -126
-11z m189 -150 c39 -17 92 -71 106 -109 54 -142 -85 -296 -231 -256 -57 15
-122 80 -138 138 -24 92 29 193 121 230 36 14 105 13 142 -3z"/>
</g>
</svg>
