<?xml version="1.0" standalone="no"?>
<!DOCTYPE svg PUBLIC "-//W3C//DTD SVG 20010904//EN"
 "http://www.w3.org/TR/2001/REC-SVG-20010904/DTD/svg10.dtd">
<svg version="1.0" xmlns="http://www.w3.org/2000/svg"
 width="512.000000pt" height="512.000000pt" viewBox="0 0 512.000000 512.000000"
 preserveAspectRatio="xMidYMid meet">
<metadata>
Created by potrace 1.16, written by Peter Selinger 2001-2019
</metadata>
<g transform="translate(0.000000,512.000000) scale(0.100000,-0.100000)"
fill="#000000" stroke="none">
<path d="M1060 4900 c-111 -27 -222 -101 -365 -245 -261 -263 -413 -595 -470
-1028 -20 -158 -20 -506 0 -664 44 -329 147 -611 308 -840 80 -113 251 -284
350 -351 104 -69 185 -94 307 -94 162 0 299 60 411 180 101 108 143 215 143
367 0 88 -5 117 -41 240 -61 209 -113 480 -113 592 l0 26 83 -5 c179 -9 299
-114 327 -284 6 -36 10 -556 10 -1305 0 -1194 1 -1247 18 -1262 27 -24 85 -22
108 4 18 21 19 57 19 1318 l0 1296 -23 59 c-78 208 -251 326 -474 326 l-78 0
0 66 0 67 113 -5 c128 -6 209 -29 301 -85 67 -41 109 -45 140 -13 21 21 21 22
21 814 0 767 -1 795 -19 815 -25 27 -86 29 -109 3 -16 -17 -17 -82 -17 -734
l0 -716 -67 23 c-86 30 -177 45 -275 45 -91 0 -85 -15 -63 157 21 161 47 284
95 449 49 170 58 252 36 354 -42 197 -180 351 -375 417 -52 18 -87 22 -166 22
-55 -1 -116 -5 -135 -9z m302 -178 c121 -59 205 -169 229 -296 13 -74 7 -115
-41 -286 -87 -305 -114 -502 -114 -845 0 -343 26 -539 113 -845 50 -176 55
-205 41 -281 -34 -188 -186 -326 -370 -337 -154 -9 -261 47 -433 227 -291 306
-427 701 -427 1236 0 551 142 948 449 1256 176 175 246 211 397 206 79 -2 100
-7 156 -35z"/>
<path d="M2304 4889 c-19 -21 -19 -74 -19 -2329 0 -2255 0 -2308 19 -2329 25
-27 86 -29 109 -3 16 17 17 193 17 2334 0 2230 -1 2316 -18 2331 -27 24 -85
22 -108 -4z"/>
<path d="M2707 4892 c-16 -17 -17 -193 -17 -2334 0 -2230 1 -2316 18 -2331 27
-24 85 -22 108 4 19 21 19 74 19 2329 0 2255 0 2308 -19 2329 -25 27 -86 29
-109 3z"/>
<path d="M2984 4889 c-18 -20 -19 -48 -19 -815 0 -792 0 -793 21 -814 31 -32
73 -28 140 13 92 56 173 79 302 85 l112 5 0 -67 0 -66 -78 0 c-265 0 -465
-174 -493 -429 -6 -51 -8 -582 -7 -1317 3 -1195 4 -1233 22 -1253 24 -27 86
-29 109 -3 15 16 17 132 19 1303 3 1437 -3 1320 76 1424 57 75 145 117 258
123 l86 5 -7 -74 c-13 -135 -54 -352 -91 -484 -58 -206 -66 -252 -60 -335 9
-131 55 -236 145 -332 112 -120 249 -180 411 -180 179 0 303 64 490 252 265
266 417 597 475 1033 17 136 20 483 5 622 -36 323 -135 613 -287 842 -136 204
-333 387 -485 450 -91 38 -257 44 -355 15 -225 -69 -380 -260 -399 -492 -7
-83 1 -128 60 -335 37 -131 78 -349 91 -482 l7 -73 -78 0 c-100 0 -191 -15
-276 -45 l-68 -23 0 717 c0 683 -1 719 -18 734 -27 24 -85 22 -108 -4z m1070
-148 c79 -28 138 -71 256 -190 308 -309 450 -705 450 -1256 0 -535 -136 -930
-427 -1236 -116 -121 -201 -184 -286 -210 -232 -72 -467 71 -517 315 -15 72
-9 113 40 286 124 433 151 891 80 1336 -17 105 -57 276 -115 484 -19 69 -19
111 1 185 35 136 142 248 277 290 64 20 178 18 241 -4z"/>
</g>
</svg>
