<?xml version="1.0" standalone="no"?>
<!DOCTYPE svg PUBLIC "-//W3C//DTD SVG 20010904//EN"
 "http://www.w3.org/TR/2001/REC-SVG-20010904/DTD/svg10.dtd">
<svg version="1.0" xmlns="http://www.w3.org/2000/svg"
 width="512.000000pt" height="512.000000pt" viewBox="0 0 512.000000 512.000000"
 preserveAspectRatio="xMidYMid meet">
<metadata>
Created by potrace 1.16, written by Peter Selinger 2001-2019
</metadata>
<g transform="translate(0.000000,512.000000) scale(0.100000,-0.100000)"
fill="#000000" stroke="none">
<path d="M4038 4233 l-377 -377 -24 22 c-43 40 -81 30 -181 -47 l-89 -69 -56
34 c-149 90 -320 125 -432 89 -51 -16 -94 -57 -899 -861 l-845 -844 -49 25
c-62 31 -160 34 -222 6 -78 -36 -134 -126 -134 -218 0 -82 23 -121 150 -248
l120 -120 -69 -69 -69 -69 -44 36 c-24 20 -56 41 -71 46 -41 16 -103 13 -140
-5 -46 -24 -146 -123 -168 -166 -21 -41 -25 -111 -9 -155 12 -32 670 -697 712
-719 35 -18 131 -18 166 0 37 19 159 148 172 180 26 71 6 151 -56 216 l-24 26
70 69 69 69 123 -120 c103 -101 131 -122 171 -134 119 -33 247 27 294 137 22
54 17 153 -11 204 l-24 44 834 835 c929 932 884 879 884 1018 0 40 -5 94 -11
120 -12 49 -73 185 -107 237 l-19 30 62 80 c97 125 100 135 58 185 l-26 32
378 378 c333 333 378 382 378 409 0 43 -28 71 -72 71 -34 0 -57 -21 -413 -377z
m-913 -516 c235 -96 434 -303 516 -539 31 -90 31 -129 -2 -183 -10 -16 -387
-399 -839 -850 l-820 -820 -372 372 -372 372 59 55 c33 30 67 55 75 56 20 0
174 -87 252 -143 35 -24 91 -70 126 -101 74 -66 116 -75 151 -30 37 46 28 72
-46 143 -70 65 -253 193 -333 231 l-45 22 61 61 c33 34 102 102 152 151 l92
90 58 -28 c98 -47 203 -117 300 -198 75 -63 98 -78 126 -78 52 0 83 47 65 97
-20 53 -223 210 -370 288 l-72 37 152 152 151 151 92 -47 c106 -52 205 -120
296 -202 75 -67 103 -77 140 -49 22 16 27 28 27 64 0 41 -3 46 -80 113 -86 74
-220 165 -303 206 -28 14 -51 27 -52 30 0 3 67 72 149 154 l150 150 73 -37
c99 -49 206 -121 307 -206 91 -77 119 -86 158 -49 41 38 32 78 -32 139 -78 75
-193 159 -296 216 l-88 49 87 86 c48 47 96 90 107 96 39 22 116 13 200 -21z
m-1628 -2119 c339 -339 486 -492 494 -515 21 -64 -40 -125 -107 -109 -20 5
-172 150 -502 479 -260 260 -480 484 -488 499 -20 39 -17 62 12 97 21 25 33
31 67 31 41 0 43 -2 524 -482z m-137 -473 l-70 -70 -162 162 -163 163 70 70
70 70 162 -162 163 -163 -70 -70z m-343 -17 c178 -178 323 -327 323 -333 0
-13 -102 -115 -115 -115 -13 0 -655 642 -655 655 0 13 102 115 115 115 5 0
155 -145 332 -322z"/>
<path d="M4414 4058 c-25 -12 -147 -259 -189 -383 -41 -120 -27 -212 44 -288
46 -51 98 -71 181 -71 65 -1 82 3 127 28 117 65 151 185 97 344 -40 117 -159
358 -182 371 -25 13 -50 13 -78 -1z m112 -406 c33 -86 31 -121 -6 -157 -59
-56 -151 -28 -165 49 -6 32 15 97 70 221 l27 60 25 -55 c14 -30 36 -83 49
-118z"/>
</g>
</svg>
